<svg width="30" height="29" viewBox="0 0 30 29" fill="none" xmlns="http://www.w3.org/2000/svg">
<path d="M18.2526 17.0135L20.3526 13.4975C20.4876 13.2796 20.4276 13.0035 20.2326 12.8437L18.8024 11.7579C18.3148 11.3877 18.0876 10.7826 18.0876 10.1703C18.0876 9.54857 18.3187 8.93547 18.8139 8.5595L20.2326 7.48247C20.4276 7.32265 20.4876 7.04659 20.3526 6.82866L18.2526 3.31263C18.1176 3.09469 17.8476 3.00752 17.6076 3.09469L15.9346 3.74663C15.3522 3.97358 14.7076 3.87266 14.1645 3.5631C13.6079 3.24581 13.1711 2.71953 13.0791 2.08549L12.8377 0.421343C12.8125 0.303835 12.7468 0.198112 12.6514 0.121544C12.556 0.044975 12.4366 0.00211349 12.3127 0H8.11272C7.85772 0 7.63273 0.188878 7.58773 0.435872L7.34553 2.10509C7.25388 2.73679 6.82628 3.26099 6.27067 3.57522C5.72406 3.88436 5.07159 3.98747 4.48647 3.75946L2.81778 3.10922C2.57778 3.02204 2.30778 3.10922 2.17278 3.32715L0.0728069 6.84319C-0.0621916 7.06112 -0.00219201 7.33717 0.192806 7.49699L1.62298 8.58276C2.11064 8.95298 2.33778 9.55807 2.33778 10.1703C2.33778 10.7921 2.1067 11.4052 1.61148 11.7812L0.192806 12.8582C-0.00219201 13.018 -0.0621916 13.2941 0.0728069 13.512L2.17278 17.0281C2.30778 17.246 2.57778 17.3332 2.81778 17.246L4.49082 16.5941C5.07324 16.3671 5.71783 16.468 6.26087 16.7776C6.81746 17.0949 7.25427 17.6211 7.34627 18.2552L7.58773 19.9193C7.63273 20.1518 7.85772 20.3407 8.11272 20.3407H12.3127C12.5677 20.3407 12.7927 20.1518 12.8377 19.9048L13.0799 18.2356C13.1715 17.6039 13.5991 17.0797 14.1547 16.7655C14.7013 16.4563 15.3538 16.3532 15.9389 16.5812L17.6076 17.2315C17.8476 17.3186 18.1176 17.2315 18.2526 17.0135ZM10.2127 13.0762C8.56272 13.0762 7.21273 11.7685 7.21273 10.1703C7.21273 8.57214 8.56272 7.26453 10.2127 7.26453C11.8627 7.26453 13.2127 8.57214 13.2127 10.1703C13.2127 11.7685 11.8627 13.0762 10.2127 13.0762ZM29.8775 24.2199L28.9525 23.5293C28.6353 23.2924 28.4975 22.9014 28.4975 22.5055C28.4975 22.1136 28.6382 21.7148 28.9511 21.4787L29.8625 20.7911C29.9825 20.6894 30.0275 20.515 29.9375 20.3697L28.5875 18.1177C28.5125 17.9724 28.3325 17.9289 28.1675 17.9724L27.0999 18.3917C26.7289 18.5374 26.3191 18.4727 25.9727 18.2753C25.6134 18.0705 25.3249 17.7337 25.264 17.3246L25.1075 16.2725C25.1016 16.1949 25.0661 16.1221 25.0079 16.0684C24.9497 16.0147 24.8729 15.9839 24.7925 15.982H22.1076C21.9426 15.982 21.7926 16.0982 21.7776 16.258L21.6186 17.3268C21.5589 17.7282 21.2877 18.0626 20.9322 18.2582C20.5744 18.4551 20.1507 18.5207 19.7706 18.3714L18.7176 17.9579C18.6412 17.9301 18.557 17.9294 18.4801 17.956C18.4032 17.9826 18.3385 18.0348 18.2976 18.1032L16.9476 20.3552C16.8726 20.5005 16.8876 20.6749 17.0226 20.7766L17.9356 21.4654C18.2515 21.7037 18.402 22.0953 18.402 22.491C18.402 22.8867 18.2515 23.2783 17.9356 23.5166L17.0226 24.2054C16.9026 24.3071 16.8576 24.4815 16.9476 24.6268L18.2976 26.8788C18.3726 27.024 18.5526 27.0676 18.7176 27.024L19.7852 26.6048C20.1562 26.4591 20.5661 26.5238 20.9124 26.7212C21.2717 26.926 21.5603 27.2628 21.6211 27.6719L21.7776 28.7239C21.8076 28.8838 21.9426 29 22.1076 29H24.7925C24.9575 29 25.1075 28.8838 25.1225 28.7239L25.2835 27.6421C25.3419 27.2488 25.6122 26.9197 25.96 26.7271C26.3166 26.5296 26.736 26.4611 27.1159 26.6089L28.1825 27.024C28.3325 27.0822 28.5125 27.024 28.6025 26.8788L29.9525 24.6268C30.0425 24.496 29.9975 24.3216 29.8775 24.2199ZM23.4426 24.4524C23.1765 24.4523 22.9131 24.4015 22.6674 24.3028C22.4217 24.2041 22.1984 24.0595 22.0104 23.8772C21.8223 23.6949 21.6732 23.4786 21.5715 23.2405C21.4698 23.0024 21.4175 22.7472 21.4176 22.4895C21.4177 22.2319 21.4702 21.9767 21.5721 21.7387C21.674 21.5007 21.8233 21.2844 22.0114 21.1023C22.1996 20.9202 22.423 20.7757 22.6688 20.6772C22.9146 20.5787 23.178 20.528 23.4441 20.5281C23.9813 20.5283 24.4965 20.7352 24.8762 21.1033C25.256 21.4714 25.4692 21.9706 25.469 22.491C25.4688 23.0114 25.2552 23.5104 24.8752 23.8782C24.4951 24.2461 23.9798 24.4526 23.4426 24.4524Z" fill="url(#paint0_linear_156_84)"/>
<defs>
<linearGradient id="paint0_linear_156_84" x1="0" y1="14.5" x2="30" y2="14.5" gradientUnits="userSpaceOnUse">
<stop stop-color="#B8B3FA"/>
<stop offset="0.951923" stop-color="#FED1A5"/>
</linearGradient>
</defs>
</svg>
