<svg width="29" height="29" viewBox="0 0 29 29" fill="none" xmlns="http://www.w3.org/2000/svg">
<path d="M1.45 5.8C0.6525 5.8 0 6.4525 0 7.25V26.1C0 27.695 1.305 29 2.9 29H21.75C22.5475 29 23.2 28.3475 23.2 27.55C23.2 26.7525 22.5475 26.1 21.75 26.1H4.35C3.5525 26.1 2.9 25.4475 2.9 24.65V7.25C2.9 6.4525 2.2475 5.8 1.45 5.8ZM26.1 0H8.7C7.105 0 5.8 1.305 5.8 2.9V20.3C5.8 21.895 7.105 23.2 8.7 23.2H26.1C27.695 23.2 29 21.895 29 20.3V2.9C29 1.305 27.695 0 26.1 0ZM23.2 13.05H11.6C10.8025 13.05 10.15 12.3975 10.15 11.6C10.15 10.8025 10.8025 10.15 11.6 10.15H23.2C23.9975 10.15 24.65 10.8025 24.65 11.6C24.65 12.3975 23.9975 13.05 23.2 13.05ZM17.4 18.85H11.6C10.8025 18.85 10.15 18.1975 10.15 17.4C10.15 16.6025 10.8025 15.95 11.6 15.95H17.4C18.1975 15.95 18.85 16.6025 18.85 17.4C18.85 18.1975 18.1975 18.85 17.4 18.85ZM23.2 7.25H11.6C10.8025 7.25 10.15 6.5975 10.15 5.8C10.15 5.0025 10.8025 4.35 11.6 4.35H23.2C23.9975 4.35 24.65 5.0025 24.65 5.8C24.65 6.5975 23.9975 7.25 23.2 7.25Z" fill="url(#paint0_linear_156_90)"/>
<defs>
<linearGradient id="paint0_linear_156_90" x1="0" y1="14.5" x2="29" y2="14.5" gradientUnits="userSpaceOnUse">
<stop stop-color="#B8B3FA"/>
<stop offset="0.951923" stop-color="#FED1A5"/>
</linearGradient>
</defs>
</svg>
