<svg width="28" height="28" viewBox="0 0 28 28" fill="none" xmlns="http://www.w3.org/2000/svg">
<path d="M22.2186 7.48929C22.5739 8.27089 23.684 8.27089 24.0393 7.48929L24.6783 6.08349C24.7784 5.86338 24.9548 5.68697 25.1749 5.58692L26.5807 4.94792C27.3623 4.59265 27.3623 3.48246 26.5807 3.12719L25.1749 2.48818C24.9548 2.38813 24.7784 2.21173 24.6783 1.99162L24.0393 0.585815C23.684 -0.195781 22.5739 -0.195782 22.2186 0.585814L21.5796 1.99162C21.4795 2.21173 21.3031 2.38813 21.083 2.48818L19.6772 3.12719C18.8956 3.48246 18.8956 4.59265 19.6772 4.94792L21.083 5.58692C21.3031 5.68697 21.4795 5.86338 21.5796 6.08349L22.2186 7.48929ZM13.2431 10.3291C13.023 10.229 12.8466 10.0526 12.7465 9.83253L10.403 4.67672C10.0477 3.89513 8.93749 3.89513 8.58222 4.67672L6.23867 9.83253C6.13862 10.0526 5.96222 10.229 5.74211 10.3291L0.586303 12.6726C-0.195293 13.0279 -0.195294 14.1381 0.586303 14.4934L5.74211 16.8369C5.96222 16.937 6.13862 17.1134 6.23867 17.3335L8.58222 22.4893C8.93749 23.2709 10.0477 23.2709 10.403 22.4893L12.7465 17.3335C12.8466 17.1134 13.023 16.937 13.2431 16.8369L18.3989 14.4934C19.1805 14.1381 19.1805 13.0279 18.3989 12.6726L13.2431 10.3291ZM24.0393 19.6767C23.684 18.8951 22.5739 18.8951 22.2186 19.6767L21.5796 21.0825C21.4795 21.3026 21.3031 21.479 21.083 21.5791L19.6772 22.2181C18.8956 22.5734 18.8956 23.6836 19.6772 24.0388L21.083 24.6778C21.3031 24.7779 21.4795 24.9543 21.5796 25.1744L22.2186 26.5802C22.5739 27.3618 23.684 27.3618 24.0393 26.5802L24.6783 25.1744C24.7784 24.9543 24.9548 24.7779 25.1749 24.6778L26.5807 24.0388C27.3623 23.6836 27.3623 22.5734 26.5807 22.2181L25.1749 21.5791C24.9548 21.479 24.7784 21.3026 24.6783 21.0825L24.0393 19.6767Z" fill="url(#paint0_linear_156_96)"/>
<defs>
<linearGradient id="paint0_linear_156_96" x1="-1.4165" y1="13.583" x2="28.5835" y2="13.583" gradientUnits="userSpaceOnUse">
<stop stop-color="#B8B3FA"/>
<stop offset="0.951923" stop-color="#FED1A5"/>
</linearGradient>
</defs>
</svg>
