<svg width="38" height="38" viewBox="0 0 38 38" fill="none" xmlns="http://www.w3.org/2000/svg">
<path d="M34.1246 21.2838C35.0364 20.7928 35.4924 20.5473 35.6077 20.2519C35.7078 19.9956 35.6795 19.7069 35.5316 19.4748C35.3612 19.2074 34.8663 19.055 33.8766 18.7501L14.5092 12.7842C13.7007 12.5351 13.2964 12.4106 13.0233 12.5108C12.7855 12.5981 12.5981 12.7855 12.5108 13.0233C12.4106 13.2964 12.5351 13.7006 12.7842 14.5092L18.75 33.8766C19.0549 34.8663 19.2074 35.3612 19.4748 35.5316C19.7069 35.6795 19.9956 35.7078 20.2519 35.6077C20.5473 35.4924 20.7928 35.0364 21.2838 34.1246L25.5819 26.1426C25.6548 26.0071 25.6913 25.9393 25.7382 25.88C25.7798 25.8274 25.8274 25.7798 25.8801 25.7381C25.9394 25.6913 26.0071 25.6548 26.1426 25.5818L34.1246 21.2838Z" fill="url(#paint0_linear_135_91)"/>
<path d="M13.7412 4.25412V1.66675M6.94614 6.94613L5.11659 5.11658M6.94614 20.6408L5.11659 22.4704M20.6409 6.94613L22.4704 5.11658M4.25413 13.7412H1.66675M25.5819 26.1426L21.2838 34.1246C20.7928 35.0364 20.5473 35.4924 20.2519 35.6077C19.9956 35.7078 19.7069 35.6795 19.4748 35.5316C19.2074 35.3612 19.0549 34.8663 18.75 33.8766L12.7842 14.5092C12.5351 13.7006 12.4106 13.2964 12.5108 13.0233C12.5981 12.7855 12.7855 12.5981 13.0233 12.5108C13.2964 12.4106 13.7007 12.5351 14.5092 12.7842L33.8766 18.7501C34.8663 19.055 35.3612 19.2074 35.5316 19.4748C35.6795 19.7069 35.7078 19.9956 35.6077 20.2519C35.4924 20.5473 35.0364 20.7928 34.1246 21.2838L26.1426 25.5818C26.0071 25.6548 25.9394 25.6913 25.8801 25.7381C25.8274 25.7797 25.7798 25.8274 25.7382 25.88C25.6913 25.9393 25.6548 26.0071 25.5819 26.1426Z" stroke="url(#paint1_linear_135_91)" stroke-width="3.33333" stroke-linecap="round" stroke-linejoin="round"/>
<defs>
<linearGradient id="paint0_linear_135_91" x1="1.66675" y1="18.6667" x2="35.6667" y2="18.6667" gradientUnits="userSpaceOnUse">
<stop stop-color="#B8B3FA"/>
<stop offset="0.951923" stop-color="#FED1A5"/>
</linearGradient>
<linearGradient id="paint1_linear_135_91" x1="1.66675" y1="18.6667" x2="35.6667" y2="18.6667" gradientUnits="userSpaceOnUse">
<stop stop-color="#B8B3FA"/>
<stop offset="0.951923" stop-color="#FED1A5"/>
</linearGradient>
</defs>
</svg>
