<svg width="38" height="38" viewBox="0 0 38 38" fill="none" xmlns="http://www.w3.org/2000/svg">
<path d="M13.5667 18.6667L16.9667 22.0667L24.6167 14.4167M28.6988 6.76421C29.0488 7.61085 29.7208 8.28383 30.5668 8.63517L33.5336 9.86411C34.3803 10.2148 35.053 10.8875 35.4037 11.7342C35.7544 12.581 35.7544 13.5323 35.4037 14.379L34.1757 17.3438C33.8248 18.1909 33.8244 19.1432 34.1768 19.9899L35.4027 22.9538C35.5766 23.3732 35.6661 23.8227 35.6662 24.2767C35.6662 24.7306 35.5768 25.1802 35.4031 25.5996C35.2294 26.019 34.9747 26.4001 34.6537 26.7211C34.3326 27.042 33.9515 27.2966 33.532 27.4702L30.5673 28.6982C29.7207 29.0483 29.0478 29.7203 28.6965 30.5664L27.4676 33.5333C27.1169 34.38 26.4442 35.0527 25.5975 35.4034C24.7508 35.7541 23.7995 35.7541 22.9528 35.4034L19.9881 34.1754C19.1414 33.8255 18.1905 33.8262 17.3443 34.1774L14.3775 35.4045C13.5313 35.7544 12.5808 35.7541 11.7348 35.4037C10.8888 35.0533 10.2165 34.3814 9.86553 33.5356L8.63627 30.5678C8.28621 29.7211 7.61427 29.0481 6.76819 28.6968L3.80138 27.4679C2.95507 27.1173 2.28258 26.445 1.93175 25.5988C1.58091 24.7526 1.58044 23.8016 1.93042 22.9551L3.15844 19.9903C3.50828 19.1435 3.50757 18.1925 3.15645 17.3463L1.9302 14.3773C1.75634 13.9579 1.66682 13.5084 1.66675 13.0544C1.66668 12.6004 1.75605 12.1509 1.92978 11.7315C2.1035 11.3121 2.35816 10.931 2.67921 10.61C3.00026 10.2891 3.38141 10.0345 3.80087 9.86092L6.76555 8.63287C7.61143 8.2831 8.28397 7.61199 8.63556 6.76684L9.86446 3.79992C10.2152 2.95321 10.8878 2.28051 11.7345 1.92979C12.5812 1.57907 13.5325 1.57907 14.3792 1.92979L17.3439 3.15784C18.1906 3.5077 19.1416 3.50698 19.9877 3.15586L22.9558 1.93169C23.8024 1.58117 24.7535 1.58124 25.6 1.93189C26.4465 2.28254 27.1191 2.95506 27.4699 3.80155L28.6991 6.76935L28.6988 6.76421Z" stroke="url(#paint0_linear_135_94)" stroke-width="3.33333" stroke-linecap="round" stroke-linejoin="round"/>
<defs>
<linearGradient id="paint0_linear_135_94" x1="1.66675" y1="18.6667" x2="35.6667" y2="18.6667" gradientUnits="userSpaceOnUse">
<stop stop-color="#B8B3FA"/>
<stop offset="0.951923" stop-color="#FED1A5"/>
</linearGradient>
</defs>
</svg>
