<svg width="38" height="38" viewBox="0 0 38 38" fill="none" xmlns="http://www.w3.org/2000/svg">
<path d="M11.8667 22.0667C11.8667 22.0667 14.4167 25.4667 18.6667 25.4667C22.9167 25.4667 25.4667 22.0667 25.4667 22.0667M23.7667 13.5667H23.7837M11.8667 13.5667H15.2667M35.6667 18.6667C35.6667 28.0556 28.0556 35.6667 18.6667 35.6667C9.27791 35.6667 1.66675 28.0556 1.66675 18.6667C1.66675 9.27791 9.27791 1.66675 18.6667 1.66675C28.0556 1.66675 35.6667 9.27791 35.6667 18.6667ZM24.6167 13.5667C24.6167 14.0362 24.2362 14.4167 23.7667 14.4167C23.2973 14.4167 22.9167 14.0362 22.9167 13.5667C22.9167 13.0973 23.2973 12.7167 23.7667 12.7167C24.2362 12.7167 24.6167 13.0973 24.6167 13.5667Z" stroke="url(#paint0_linear_135_97)" stroke-width="3.33333" stroke-linecap="round" stroke-linejoin="round"/>
<defs>
<linearGradient id="paint0_linear_135_97" x1="1.66675" y1="18.6667" x2="35.6667" y2="18.6667" gradientUnits="userSpaceOnUse">
<stop stop-color="#B8B3FA"/>
<stop offset="0.951923" stop-color="#FED1A5"/>
</linearGradient>
</defs>
</svg>
